<svg xmlns="http://www.w3.org/2000/svg" xmlns:xlink="http://www.w3.org/1999/xlink" width="500" zoomAndPan="magnify" viewBox="0 0 375 374.999991" height="500" preserveAspectRatio="xMidYMid meet" version="1.0"><defs><clipPath id="23980ee896"><path d="M 24.390625 38.253906 L 188 38.253906 L 188 336.753906 L 24.390625 336.753906 Z M 24.390625 38.253906 " clip-rule="nonzero"/></clipPath><clipPath id="40ad3ab93c"><path d="M 187 38.253906 L 350.640625 38.253906 L 350.640625 336.753906 L 187 336.753906 Z M 187 38.253906 " clip-rule="nonzero"/></clipPath><clipPath id="dd4424eabf"><path d="M 32.996094 46.128906 L 188 46.128906 L 188 328.878906 L 32.996094 328.878906 Z M 32.996094 46.128906 " clip-rule="nonzero"/></clipPath><clipPath id="b3e20f945d"><path d="M 187 46.128906 L 341.996094 46.128906 L 341.996094 328.878906 L 187 328.878906 Z M 187 46.128906 " clip-rule="nonzero"/></clipPath><clipPath id="996ef78a79"><path d="M 69.996094 94 L 304 94 L 304 328.648438 L 69.996094 328.648438 Z M 69.996094 94 " clip-rule="nonzero"/></clipPath><clipPath id="af0b80a202"><path d="M 69.996094 94 L 186.246094 94 L 186.246094 328.648438 L 69.996094 328.648438 Z M 69.996094 94 " clip-rule="nonzero"/></clipPath><clipPath id="48a8e1f91d"><path d="M 113 115 L 186.246094 115 L 186.246094 260 L 113 260 Z M 113 115 " clip-rule="nonzero"/></clipPath><clipPath id="932022b6c7"><path d="M 135 140 L 186.246094 140 L 186.246094 217 L 135 217 Z M 135 140 " clip-rule="nonzero"/></clipPath><clipPath id="79a24ab94b"><path d="M 70 206 L 186.246094 206 L 186.246094 256 L 70 256 Z M 70 206 " clip-rule="nonzero"/></clipPath><clipPath id="1397acf377"><path d="M 99 164 L 186.246094 164 L 186.246094 247 L 99 247 Z M 99 164 " clip-rule="nonzero"/></clipPath><clipPath id="b61fce8748"><path d="M 103 172 L 186.246094 172 L 186.246094 320 L 103 320 Z M 103 172 " clip-rule="nonzero"/></clipPath></defs><g clip-path="url(#23980ee896)"><path fill="#ebebeb" d="M 187.46875 336.726562 L 24.359375 266.824219 L 187.3125 38.378906 L 187.46875 38.714844 L 187.46875 336.726562 " fill-opacity="1" fill-rule="nonzero"/></g><g clip-path="url(#40ad3ab93c)"><path fill="#ebebeb" d="M 187.472656 336.726562 L 350.582031 266.824219 L 187.625 38.378906 L 187.472656 38.714844 L 187.472656 336.726562 " fill-opacity="1" fill-rule="nonzero"/></g><g clip-path="url(#dd4424eabf)"><path fill="#24a19c" d="M 187.449219 328.851562 L 32.964844 262.636719 L 187.300781 46.246094 L 187.449219 46.5625 L 187.449219 328.851562 " fill-opacity="1" fill-rule="nonzero"/></g><g clip-path="url(#b3e20f945d)"><path fill="#444444" d="M 187.453125 328.851562 L 341.9375 262.636719 L 187.601562 46.246094 L 187.453125 46.5625 L 187.453125 328.851562 " fill-opacity="1" fill-rule="nonzero"/></g><g clip-path="url(#996ef78a79)"><path fill="#faeee7" d="M 186.886719 328.164062 C 185.640625 328.164062 184.390625 327.683594 183.4375 326.742188 L 71.421875 214.722656 C 69.519531 212.824219 69.519531 209.734375 71.421875 207.835938 L 183.4375 95.816406 C 185.335938 93.917969 188.425781 93.917969 190.324219 95.816406 L 302.34375 207.835938 C 304.242188 209.734375 304.242188 212.824219 302.34375 214.722656 L 190.324219 326.742188 C 189.378906 327.683594 188.132812 328.164062 186.886719 328.164062 Z M 81.753906 211.273438 L 186.886719 316.40625 L 292.015625 211.273438 L 186.886719 106.144531 Z M 81.753906 211.273438 " fill-opacity="1" fill-rule="nonzero"/></g><path fill="#faeee7" d="M 118.699219 259.976562 C 117.765625 259.976562 116.839844 259.714844 116.003906 259.160156 C 113.773438 257.679688 113.160156 254.648438 114.648438 252.410156 L 204.15625 117.890625 C 205.636719 115.660156 208.664062 115.066406 210.90625 116.535156 C 213.136719 118.015625 213.75 121.046875 212.261719 123.285156 L 122.753906 257.804688 C 121.816406 259.21875 120.269531 259.976562 118.699219 259.976562 Z M 118.699219 259.976562 " fill-opacity="1" fill-rule="nonzero"/><path fill="#faeee7" d="M 298.902344 216.144531 C 298.28125 216.144531 297.636719 216.019531 297.03125 215.765625 L 138.972656 149.792969 C 136.488281 148.757812 135.320312 145.90625 136.351562 143.421875 C 137.382812 140.925781 140.257812 139.769531 142.710938 140.800781 L 300.773438 206.773438 C 303.257812 207.796875 304.425781 210.652344 303.394531 213.136719 C 302.613281 215.023438 300.804688 216.144531 298.902344 216.144531 Z M 298.902344 216.144531 " fill-opacity="1" fill-rule="nonzero"/><path fill="#faeee7" d="M 212.464844 302.59375 C 212.222656 302.59375 211.976562 302.574219 211.734375 302.535156 C 209.085938 302.144531 207.242188 299.660156 207.644531 297.003906 L 230.144531 146.605469 C 230.542969 143.9375 233.015625 142.085938 235.675781 142.515625 C 238.328125 142.90625 240.167969 145.386719 239.769531 148.046875 L 217.265625 298.445312 C 216.90625 300.859375 214.832031 302.59375 212.464844 302.59375 Z M 212.464844 302.59375 " fill-opacity="1" fill-rule="nonzero"/><path fill="#faeee7" d="M 259.082031 255.972656 C 258.742188 255.972656 258.390625 255.933594 258.050781 255.859375 L 73.84375 216.027344 C 71.207031 215.464844 69.550781 212.871094 70.113281 210.242188 C 70.679688 207.621094 73.230469 205.917969 75.902344 206.511719 L 260.105469 246.339844 C 262.746094 246.90625 264.402344 249.496094 263.835938 252.125 C 263.351562 254.414062 261.324219 255.972656 259.082031 255.972656 Z M 259.082031 255.972656 " fill-opacity="1" fill-rule="nonzero"/><path fill="#faeee7" d="M 104.332031 246.046875 C 102.503906 246.046875 100.757812 245.015625 99.921875 243.242188 C 98.78125 240.808594 99.832031 237.90625 102.269531 236.765625 L 255.089844 165.125 C 257.503906 163.992188 260.417969 165.027344 261.566406 167.46875 C 262.707031 169.90625 261.65625 172.808594 259.21875 173.949219 L 106.398438 245.589844 C 105.734375 245.914062 105.035156 246.046875 104.332031 246.046875 Z M 104.332031 246.046875 " fill-opacity="1" fill-rule="nonzero"/><path fill="#faeee7" d="M 195.566406 319.484375 C 193.957031 319.484375 192.378906 318.683594 191.453125 317.222656 L 104.5 180.144531 C 103.058594 177.863281 103.730469 174.863281 106 173.421875 C 108.238281 171.980469 111.269531 172.632812 112.710938 174.921875 L 199.664062 312.003906 C 201.105469 314.273438 200.433594 317.28125 198.164062 318.714844 C 197.355469 319.238281 196.449219 319.484375 195.566406 319.484375 Z M 195.566406 319.484375 " fill-opacity="1" fill-rule="nonzero"/><g clip-path="url(#af0b80a202)"><path fill="#faeee7" d="M 186.886719 328.164062 C 185.640625 328.164062 184.390625 327.683594 183.4375 326.742188 L 71.421875 214.722656 C 69.519531 212.824219 69.519531 209.734375 71.421875 207.835938 L 183.4375 95.816406 C 185.335938 93.917969 188.425781 93.917969 190.324219 95.816406 L 302.34375 207.835938 C 304.242188 209.734375 304.242188 212.824219 302.34375 214.722656 L 190.324219 326.742188 C 189.378906 327.683594 188.132812 328.164062 186.886719 328.164062 Z M 81.753906 211.273438 L 186.886719 316.40625 L 292.015625 211.273438 L 186.886719 106.144531 Z M 81.753906 211.273438 " fill-opacity="1" fill-rule="nonzero"/></g><g clip-path="url(#48a8e1f91d)"><path fill="#faeee7" d="M 118.699219 259.976562 C 117.765625 259.976562 116.839844 259.714844 116.003906 259.160156 C 113.773438 257.679688 113.160156 254.648438 114.648438 252.410156 L 204.15625 117.890625 C 205.636719 115.660156 208.664062 115.066406 210.90625 116.535156 C 213.136719 118.015625 213.75 121.046875 212.261719 123.285156 L 122.753906 257.804688 C 121.816406 259.21875 120.269531 259.976562 118.699219 259.976562 Z M 118.699219 259.976562 " fill-opacity="1" fill-rule="nonzero"/></g><g clip-path="url(#932022b6c7)"><path fill="#faeee7" d="M 298.902344 216.144531 C 298.28125 216.144531 297.636719 216.019531 297.03125 215.765625 L 138.972656 149.792969 C 136.488281 148.757812 135.320312 145.90625 136.351562 143.421875 C 137.382812 140.925781 140.257812 139.769531 142.710938 140.800781 L 300.773438 206.773438 C 303.257812 207.796875 304.425781 210.652344 303.394531 213.136719 C 302.613281 215.023438 300.804688 216.144531 298.902344 216.144531 Z M 298.902344 216.144531 " fill-opacity="1" fill-rule="nonzero"/></g><g clip-path="url(#79a24ab94b)"><path fill="#faeee7" d="M 259.082031 255.972656 C 258.742188 255.972656 258.390625 255.933594 258.050781 255.859375 L 73.84375 216.027344 C 71.207031 215.464844 69.550781 212.871094 70.113281 210.242188 C 70.679688 207.621094 73.230469 205.917969 75.902344 206.511719 L 260.105469 246.339844 C 262.746094 246.90625 264.402344 249.496094 263.835938 252.125 C 263.351562 254.414062 261.324219 255.972656 259.082031 255.972656 Z M 259.082031 255.972656 " fill-opacity="1" fill-rule="nonzero"/></g><g clip-path="url(#1397acf377)"><path fill="#faeee7" d="M 104.332031 246.046875 C 102.503906 246.046875 100.757812 245.015625 99.921875 243.242188 C 98.78125 240.808594 99.832031 237.90625 102.269531 236.765625 L 255.089844 165.125 C 257.503906 163.992188 260.417969 165.027344 261.566406 167.46875 C 262.707031 169.90625 261.65625 172.808594 259.21875 173.949219 L 106.398438 245.589844 C 105.734375 245.914062 105.035156 246.046875 104.332031 246.046875 Z M 104.332031 246.046875 " fill-opacity="1" fill-rule="nonzero"/></g><g clip-path="url(#b61fce8748)"><path fill="#faeee7" d="M 195.566406 319.484375 C 193.957031 319.484375 192.378906 318.683594 191.453125 317.222656 L 104.5 180.144531 C 103.058594 177.863281 103.730469 174.863281 106 173.421875 C 108.238281 171.980469 111.269531 172.632812 112.710938 174.921875 L 199.664062 312.003906 C 201.105469 314.273438 200.433594 317.28125 198.164062 318.714844 C 197.355469 319.238281 196.449219 319.484375 195.566406 319.484375 Z M 195.566406 319.484375 " fill-opacity="1" fill-rule="nonzero"/></g></svg>