<svg xmlns="http://www.w3.org/2000/svg" viewBox="0 0 100 100" width="500" height="500" class="illustration"><defs><style>.cls-1,.cls-4{fill:#ffd44d;}.cls-1,.cls-2,.cls-3,.cls-4{stroke:#231f20;stroke-width:1.5px;}.cls-1{stroke-miterlimit:10;}.cls-2{fill:#231f20;}.cls-2,.cls-3,.cls-4{stroke-linejoin:bevel;}.cls-3{fill:#f0457d;}</style></defs><g id="Layer_2" data-name="Layer 2"><path class="cls-1" d="M15.38,60.19c.72,2,2.13,3.22,3.15,2.84,0,0,6.31.45,9.26-.64-2.38.88-5.29-1.09-6.51-4.39s-.29-6.68,2.08-7.56C20.42,51.53,15.91,56,15.91,56,14.9,56.35,14.66,58.24,15.38,60.19Z"></path><polyline class="cls-2" points="43.21 64.03 51.25 75.04 48.69 76.91 36.4 65.47"></polyline><polyline class="cls-3" points="39.9 64.88 48.69 76.91 42.54 79.25 33.27 66.57"></polyline><path class="cls-2" d="M18.77,58.93c1.25,3.36,3.68,5.56,5.43,4.91,0,0,10.9.76,16-1.12-4.1,1.52-9.12-1.87-11.23-7.56s-.5-11.54,3.6-13C27.46,44,19.69,51.66,19.69,51.66,17.94,52.31,17.53,55.56,18.77,58.93Z"></path><path class="cls-2" d="M45,49.2A30,30,0,0,0,53.4,61.56c4.87,4.18,10.71,5.87,15.87,4C78.1,62.25,81.59,49.64,77,37.35S61.63,17.76,52.79,21c-5.15,1.91-8.48,7-9.46,13.35A29.9,29.9,0,0,0,45,49.2Z"></path><path class="cls-1" d="M23.07,57.33c2.68,7.26,7.93,12,11.72,10.61,0,0,23.51,1.64,34.48-2.42C60.43,68.8,49.58,61.49,45,49.2S44,24.31,52.79,21c-11,4.07-27.73,20.63-27.73,20.63C21.27,43.06,20.38,50.07,23.07,57.33Z"></path><path class="cls-1" d="M53.4,61.56a27.89,27.89,0,0,1-5.69-6.79A32.12,32.12,0,0,1,45,49.21a31.51,31.51,0,0,1-1.18-3.94,28.78,28.78,0,0,1-.52-10.89c5.38-1.92,12,2.54,14.73,10S58.73,59.52,53.4,61.56Z"></path><path class="cls-2" d="M47.91,55a1.8,1.8,0,0,1-.2-.19A32.12,32.12,0,0,1,45,49.21a31.51,31.51,0,0,1-1.18-3.94,7,7,0,0,1,.1-1c2.11-.75,4.7,1,5.8,4S50,54.15,47.91,55Z"></path><polyline class="cls-4" points="66.89 17.1 59.28 36.01 77.69 18.35 68.77 12.43"></polyline><polygon class="cls-4" points="84.18 64.03 63.32 49.52 88.4 54.18 84.18 64.03"></polygon><polygon class="cls-4" points="84.41 30.38 65.11 41.69 87.43 39.31 84.41 30.38"></polygon></g></svg>